# xmcd
#
# Track frame offsets:
#	150
#	32071
#	45008
#	58105
#	72061
#	90220
#	101891
#	117113
#	134121
#	147710
#	159171
#	171690
#	189043
#	204772
#	214568
#	229314
#	241983
#	258398
#	285953
#	299930
#	310606
#	327759
#	337759
#	351955
#
# Disc length: 4798 seconds
#
# Revision: 2
# Processed by: cddbd v1.5.2PL0 Copyright (c) Steve Scherf et al.
# Submitted via: EZCDAudioConverter 2.1.7.1
#
DISCID=5d12bc18
DTITLE=V/A - Ork Records 1/2
DYEAR=2015
DGENRE=
TTITLE0=Television - Little Johnny Jewel
TTITLE1=The Feelies - Fa Cé-La
TTITLE2=Richard Hell - (I Belong To The) Blank Generation
TTITLE3=The Revelons - The Way (You Touch My Hand)
TTITLE4=The Erasers - I Won't Give Up
TTITLE5=Alex Chilton - All Of The Time
TTITLE6=Chris Stamey and The dBs - (I Thought) You Wanted To Know
TTITLE7=Prix - Zero
TTITLE8=Marbles - Red Lights
TTITLE9=Alex Chilton - Take Me Home and Make Me Like It
TTITLE10=Prix - Girl
TTITLE11=The Idols - Girl That I Love
TTITLE12=Mick Farren and The New Wave - Lost Johnny
TTITLE13=Cheetah Chrome - Still Wanna Die
TTITLE14=The Idols - You
TTITLE15=Student Teachers - Christmas Weather
TTITLE16=The Erasers - It Was So Funny (The Song That They Sung)
TTITLE17=Richard Hell - (I Could Live With You) (In) Another World
TTITLE18=Chris Stamey - The Summer Sun
TTITLE19=Alex Chilton - Free Again
TTITLE20=Richard Lloyd - (I Thought) You Wanted To Know
TTITLE21=Student Teachers - Channel 13
TTITLE22=Chris Stamey - Where The Fun Is
TTITLE23=Prix - Everytime I Close My Eyes
EXTD=
EXTT0=
EXTT1=
EXTT2=
EXTT3=
EXTT4=
EXTT5=
EXTT6=
EXTT7=
EXTT8=
EXTT9=
EXTT10=
EXTT11=
EXTT12=
EXTT13=
EXTT14=
EXTT15=
EXTT16=
EXTT17=
EXTT18=
EXTT19=
EXTT20=
EXTT21=
EXTT22=
EXTT23=
PLAYORDER=
